# xmcd
#
# Track frame offsets:
#	150
#	13363
#	28743
#	44048
#	55186
#	71731
#	88521
#	108291
#	125994
#	144107
#	158347
#	172327
#	188357
#	206422
#	221525
#	237173
#	252208
#	262963
#	275593
#	290263
#	305471
#
# Disc length: 4250 seconds
#
# Revision: 1
# Processed by: cddbd v1.5.2PL0 Copyright (c) Steve Scherf et al.
# Submitted via: audiograbber 1.83.01
#
DISCID=32109815
DTITLE=Various Artist - Halland's Country Hits Volume 2
DYEAR=1900
DGENRE=
TTITLE0=Oak Ridge Boys - Come On In
TTITLE1=Oak Ridge Boys - I Wish You Could Have Turned.....
TTITLE2=Oak Ridge Boys - Lucky Moon
TTITLE3=Oak Ridge Boys - Trying To Love Two Women
TTITLE4=K.T. Oslon - Come Next Monday
TTITLE5=K.T. Oslon - Do Ya'
TTITLE6=K.T. Oslon - Hey Bobby
TTITLE7=Marie Osmond - Meet Me In Montana
TTITLE8=Paul Overstreet - Heros
TTITLE9=Paul Overstreet - Richest Man On Earth
TTITLE10=Dolly Parton - I Will Always Love You
TTITLE11=Dolly Parton and Friends - Romeo
TTITLE12=Pirates Of The Mississippi - Feed Jake
TTITLE13=Pirates Of The Mississippi - Till I'm Holding You Again
TTITLE14=Charlie Pride - You're So Good When You're Bad
TTITLE15=Eddie Rabbitt - The Wanderer
TTITLE16=Eddie Rabbitt - Two Dollars In The Juke Box
TTITLE17=Eddy Raven - Bayou Boys
TTITLE18=Eddy Raven - She's Gonna Win Your Heart
TTITLE19=Eddy Raven - Sometimes A Lady
TTITLE20=Mike Reid - As Simple As That
EXTD=
EXTT0=
EXTT1=
EXTT2=
EXTT3=
EXTT4=
EXTT5=
EXTT6=
EXTT7=
EXTT8=
EXTT9=
EXTT10=
EXTT11=
EXTT12=
EXTT13=
EXTT14=
EXTT15=
EXTT16=
EXTT17=
EXTT18=
EXTT19=
EXTT20=
PLAYORDER=
